<svg xmlns="http://www.w3.org/2000/svg" viewBox="0 0 100 100" width="100" height="100">
  <defs>
    <linearGradient id="gradient" x1="0%" y1="0%" x2="100%" y2="100%">
      <stop offset="0%" style="stop-color:#6366f1;stop-opacity:1" />
      <stop offset="50%" style="stop-color:#8b5cf6;stop-opacity:1" />
      <stop offset="100%" style="stop-color:#06b6d4;stop-opacity:1" />
    </linearGradient>
  </defs>
  
  <!-- Background Circle -->
  <circle cx="50" cy="50" r="45" fill="url(#gradient)" />
  
  <!-- Brain Icon -->
  <path d="M30 35 C25 30, 25 40, 35 45 C40 50, 60 50, 65 45 C75 40, 75 30, 70 35 C75 40, 70 50, 65 55 C60 60, 40 60, 35 55 C25 50, 30 40, 30 35 Z" 
        fill="white" stroke="white" stroke-width="2"/>
  
  <!-- Neural connections -->
  <circle cx="40" cy="40" r="2" fill="white" opacity="0.8"/>
  <circle cx="50" cy="45" r="2" fill="white" opacity="0.8"/>
  <circle cx="60" cy="40" r="2" fill="white" opacity="0.8"/>
  <circle cx="45" cy="55" r="2" fill="white" opacity="0.8"/>
  <circle cx="55" cy="55" r="2" fill="white" opacity="0.8"/>
  
  <line x1="40" y1="40" x2="50" y2="45" stroke="white" stroke-width="1" opacity="0.6"/>
  <line x1="50" y1="45" x2="60" y2="40" stroke="white" stroke-width="1" opacity="0.6"/>
  <line x1="50" y1="45" x2="45" y2="55" stroke="white" stroke-width="1" opacity="0.6"/>
  <line x1="50" y1="45" x2="55" y2="55" stroke="white" stroke-width="1" opacity="0.6"/>
</svg>
